<svg width="36" height="36" viewBox="0 0 36 36" fill="none" xmlns="http://www.w3.org/2000/svg">
<g clip-path="url(#clip0_23_456)">
<mask id="mask0_23_456" style="mask-type:luminance" maskUnits="userSpaceOnUse" x="0" y="0" width="36" height="36">
<path d="M36 0H0V36H36V0Z" fill="white"/>
</mask>
<g mask="url(#mask0_23_456)">
<path fill-rule="evenodd" clip-rule="evenodd" d="M18.0149 0C8.05313 0 0 8.11252 0 18.1487C0 26.1712 5.15991 32.9621 12.3181 35.3657C13.2131 35.5463 13.5409 34.9751 13.5409 34.4947C13.5409 34.0739 13.5113 32.6318 13.5113 31.1291C8.50005 32.211 7.45649 28.9657 7.45649 28.9657C6.65114 26.8623 5.45786 26.3217 5.45786 26.3217C3.81767 25.2099 5.57734 25.2099 5.57734 25.2099C7.39675 25.3301 8.35148 27.0728 8.35148 27.0728C9.9618 29.837 12.5567 29.056 13.6006 28.5751C13.7496 27.4033 14.2271 26.592 14.7341 26.1414C10.7372 25.7207 6.53203 24.1582 6.53203 17.1871C6.53203 15.2039 7.24741 13.5814 8.38095 12.3196C8.20208 11.869 7.5756 10.0057 8.56013 7.51178C8.56013 7.51178 10.0813 7.03095 13.511 9.3747C14.9794 8.97743 16.4937 8.77538 18.0149 8.77365C19.536 8.77365 21.0866 8.98425 22.5185 9.3747C25.9486 7.03095 27.4697 7.51178 27.4697 7.51178C28.4542 10.0057 27.8273 11.869 27.6485 12.3196C28.8119 13.5814 29.4977 15.2039 29.4977 17.1871C29.4977 24.1582 25.2926 25.6904 21.2658 26.1414C21.9222 26.7122 22.4886 27.7938 22.4886 29.5066C22.4886 31.9403 22.4591 33.8936 22.4591 34.4943C22.4591 34.9751 22.7873 35.5463 23.6819 35.366C30.84 32.9618 35.9999 26.1712 35.9999 18.1487C36.0294 8.11252 27.9468 0 18.0149 0Z" fill="white"/>
</g>
</g>
<defs>
<clipPath id="clip0_23_456">
<rect width="36" height="36" fill="white"/>
</clipPath>
</defs>
</svg>
