<svg width="36" height="36" viewBox="0 0 36 36" fill="none" xmlns="http://www.w3.org/2000/svg">
<g clip-path="url(#clip0_23_441)">
<mask id="mask0_23_441" style="mask-type:luminance" maskUnits="userSpaceOnUse" x="0" y="0" width="36" height="36">
<path d="M36 0H0V36H36V0Z" fill="white"/>
</mask>
<g mask="url(#mask0_23_441)">
<path d="M33.3352 0H2.65781C1.18828 0 0 1.16016 0 2.59453V33.3984C0 34.8328 1.18828 36 2.65781 36H33.3352C34.8047 36 36 34.8329 36 33.4054V2.59453C36 1.16016 34.8047 0 33.3352 0ZM10.6804 30.6773H5.33672V13.493H10.6804V30.6773ZM8.00857 11.1516C6.29297 11.1516 4.90781 9.76643 4.90781 8.05778C4.90781 6.34922 6.29297 4.96406 8.00857 4.96406C9.71723 4.96406 11.1023 6.34922 11.1023 8.05778C11.1023 9.75937 9.71723 11.1516 8.00857 11.1516ZM30.6773 30.6773H25.3406V22.3242C25.3406 20.3344 25.3055 17.768 22.5633 17.768C19.7859 17.768 19.364 19.9406 19.364 22.1836V30.6773H14.0344V13.493H19.1531V15.8414H19.2234C19.9336 14.4914 21.6773 13.0641 24.2719 13.0641C29.6789 13.0641 30.6773 16.6219 30.6773 21.2485V30.6773Z" fill="white"/>
</g>
</g>
<defs>
<clipPath id="clip0_23_441">
<rect width="36" height="36" fill="white"/>
</clipPath>
</defs>
</svg>
